<?xml version="1.0" standalone="no"?><!DOCTYPE svg PUBLIC "-//W3C//DTD SVG 1.1//EN" "http://www.w3.org/Graphics/SVG/1.1/DTD/svg11.dtd"><svg class="icon" width="200px" height="182.21px" viewBox="0 0 1124 1024" version="1.1" xmlns="http://www.w3.org/2000/svg"><path fill="#cdcdcd" d="M1043.66564 100.462854C985.285161 34.073019 906.189456 0.013305 827.093751 0.013305c-73.654133 0-147.294961 29.376504-204.571161 87.54411l-60.003638 61.094613-60.056856-61.107918C444.680322 29.376504 371.039494 0.013305 297.398665 0.013305c-79.109009 0-158.151495 34.059715-216.571889 100.449549C1.079147 191.758855-19.290158 320.813242 18.0957 431.573838a31.930983 31.930983 0 0 1 7.397345-11.867682l103.975261-102.964114a70.580776 70.580776 0 0 1 99.119092 0l106.503131 105.478679a70.514253 70.514253 0 0 0 49.559546 20.329392h251.017436a32.303511 32.303511 0 1 1 0 64.607021h-278.065639a70.514253 70.514253 0 0 1-49.519632-20.329392l-79.494842-78.723176a70.514253 70.514253 0 0 0-99.119092 0L71.62001 465.39407a32.542993 32.542993 0 0 1-37.252813 5.8141 317.393966 317.393966 0 0 0 58.540134 83.393083l407.958216 415.315645 46.366447 47.005068a20.87488 20.87488 0 0 0 15.286958 7.051425 20.622093 20.622093 0 0 0 14.728166-7.051425l47.457422-48.17587 406.947068-414.171453c119.475093-121.59052 124.929969-325.443235 12.014032-454.111789z"  /></svg>